<svg width="42" height="28" viewBox="0 0 42 28" fill="none" xmlns="http://www.w3.org/2000/svg">
<path d="M40.6829 14.9168V14.9155C40.6829 14.9142 40.6829 14.9128 40.6829 14.9102C40.6829 14.9088 40.6829 14.9075 40.6829 14.9062L40.6603 14.6582V14.6542C40.6603 14.6515 40.6589 14.6502 40.6589 14.6488C40.6589 14.6475 40.6589 14.6462 40.6589 14.6462C40.6576 14.6422 40.6589 14.6408 40.6589 14.6368L40.6149 14.3822C40.6136 14.3795 40.6136 14.3755 40.6136 14.3728L40.6123 14.3715C40.6123 14.3688 40.6109 14.3648 40.6096 14.3608V14.3595L40.5296 14.1195C40.5296 14.1182 40.5283 14.1168 40.5269 14.1155C40.5269 14.1142 40.5269 14.1128 40.5256 14.1128C40.5256 14.1115 40.5256 14.1102 40.5256 14.1088L40.5243 14.1075C40.5243 14.1062 40.5243 14.1048 40.5229 14.1048L40.4229 13.8742C40.4216 13.8715 40.4203 13.8675 40.4189 13.8648C40.4189 13.8635 40.4176 13.8635 40.4163 13.8622C40.4163 13.8608 40.4163 13.8582 40.4149 13.8568C40.4149 13.8555 40.4136 13.8555 40.4123 13.8542C40.4123 13.8528 40.4123 13.8515 40.4109 13.8502L40.2736 13.6315C40.2709 13.6288 40.2696 13.6275 40.2669 13.6248C40.2669 13.6235 40.2669 13.6222 40.2656 13.6208L40.2629 13.6182C40.2616 13.6168 40.2616 13.6168 40.2616 13.6168C40.2603 13.6155 40.2603 13.6155 40.2603 13.6155L40.1016 13.4195C40.1003 13.4182 40.0989 13.4168 40.0976 13.4168C40.0976 13.4155 40.0963 13.4142 40.0963 13.4142C40.0949 13.4128 40.0949 13.4115 40.0949 13.4115L40.0923 13.4102C40.0923 13.4088 40.0909 13.4062 40.0896 13.4048C40.0896 13.4048 40.0883 13.4048 40.0883 13.4035H40.0869L39.9083 13.2328L39.9069 13.2302L39.9056 13.2288L39.9043 13.2275C39.9043 13.2275 39.9029 13.2275 39.9029 13.2262C39.9016 13.2262 39.9016 13.2248 39.9016 13.2248C39.8989 13.2235 39.8976 13.2222 39.8949 13.2208C39.8936 13.2195 39.8923 13.2168 39.8896 13.2142L39.6923 13.0675C39.6923 13.0662 39.6909 13.0662 39.6909 13.0662L39.6869 13.0635C39.6856 13.0622 39.6829 13.0622 39.6816 13.0608C39.6803 13.0595 39.6789 13.0595 39.6776 13.0582C39.6749 13.0568 39.6736 13.0528 39.6696 13.0515L39.4523 12.9262C39.4523 12.9262 39.4523 12.9248 39.4509 12.9248L39.4496 12.9235C39.4443 12.9208 39.4403 12.9195 39.4349 12.9168C39.4336 12.9155 39.4323 12.9142 39.4309 12.9142C39.4296 12.9128 39.4283 12.9128 39.4269 12.9128C39.4256 12.9128 39.4256 12.9115 39.4243 12.9102L39.1949 12.8168C39.1949 12.8168 39.1949 12.8168 39.1936 12.8168L39.1923 12.8155C39.1909 12.8155 39.1883 12.8155 39.1869 12.8142C39.1829 12.8128 39.1803 12.8115 39.1763 12.8115L39.1749 12.8102L38.9336 12.7395C38.9336 12.7395 38.9323 12.7395 38.9309 12.7382C38.9296 12.7382 38.9269 12.7368 38.9256 12.7368C38.9256 12.7368 38.9243 12.7368 38.9229 12.7355C38.9203 12.7355 38.9176 12.7355 38.9149 12.7355C38.9109 12.7342 38.9083 12.7315 38.9043 12.7315L38.6683 12.6982C38.6669 12.6982 38.6669 12.6968 38.6656 12.6968C38.6643 12.6968 38.6629 12.6968 38.6616 12.6968C38.6603 12.6968 38.6603 12.6968 38.6589 12.6955C38.6563 12.6955 38.6536 12.6955 38.6509 12.6955C38.6496 12.6955 38.6483 12.6942 38.6469 12.6942L2.16959 9.5035V1.68217C2.16959 1.68083 2.16959 1.6795 2.16959 1.67817V1.6755C2.16959 1.67283 2.16826 1.6715 2.16826 1.66883C2.16826 1.66617 2.16959 1.66483 2.16826 1.66217L2.16293 1.62083L2.14559 1.54883C2.14426 1.54483 2.14292 1.54083 2.14159 1.53683L2.12559 1.50217L2.08959 1.4395C2.08826 1.43683 2.08559 1.43417 2.08292 1.4315L2.05892 1.40217L2.01226 1.35817C2.00826 1.3555 2.00559 1.35283 2.00292 1.3515L1.97226 1.3315L1.91626 1.3035C1.91226 1.30083 1.90959 1.2995 1.90559 1.2995L1.88026 1.29017C1.87626 1.28883 1.87359 1.28883 1.87093 1.2875L1.77626 1.27417C1.77226 1.27283 1.76826 1.27283 1.76559 1.27417H1.73892C1.73492 1.27417 1.73093 1.2755 1.72826 1.2755L1.63493 1.2955C1.63093 1.29683 1.62826 1.29817 1.62426 1.2995L1.55759 1.33283L1.50559 1.37017C1.50293 1.37283 1.49893 1.3755 1.49626 1.3795L1.45226 1.42883C1.44959 1.4315 1.44826 1.43417 1.44559 1.43683L1.40959 1.49683C1.40826 1.4995 1.40559 1.5035 1.40426 1.5075L1.39093 1.54483L1.37093 1.61683C1.37093 1.6195 1.36959 1.6235 1.36959 1.62617L1.36559 1.65817C1.36559 1.65817 1.36559 1.6595 1.36559 1.66083C1.36559 1.66617 1.36426 1.67017 1.36426 1.6755V1.67817V10.1062C1.36426 10.1075 1.36426 10.1102 1.36426 10.1102C1.36426 10.1115 1.36426 10.1115 1.36426 10.1115C1.36426 10.1128 1.36426 10.1128 1.36426 10.1128C1.36426 10.1142 1.36426 10.1155 1.36426 10.1155C1.36426 10.1195 1.36426 10.1248 1.36559 10.1288C1.36559 10.1315 1.36559 10.1355 1.36693 10.1395C1.36826 10.1502 1.37226 10.1595 1.37759 10.1688L1.38426 10.1675C1.38426 10.1702 1.38559 10.1715 1.38692 10.1728L1.38159 10.1768C1.38426 10.1835 1.38959 10.1902 1.39359 10.1968C1.39759 10.2008 1.40026 10.2062 1.40426 10.2088C1.40959 10.2142 1.41493 10.2195 1.42159 10.2235C1.42826 10.2275 1.43493 10.2328 1.44026 10.2355C1.44159 10.2355 1.44959 10.2395 1.45093 10.2408C1.46026 10.2448 1.46959 10.2475 1.47893 10.2488C1.48293 10.2502 1.48693 10.2502 1.49093 10.2502C1.49226 10.2502 1.49226 10.2502 1.49359 10.2502L38.5709 13.4968L38.7656 13.5248L38.9496 13.5795L39.1189 13.6542L39.1203 13.6555L39.2816 13.7555L39.4323 13.8848L39.5629 14.0288L39.6803 14.1875L39.7643 14.3568L39.8243 14.5368L39.8629 14.7208L39.8776 14.9208V25.9128L39.8709 25.9435L39.8683 25.9475L39.8563 25.9555L39.8443 25.9608L39.8269 25.9582L39.1523 25.7822L39.1269 25.7688L39.1203 25.7582L39.1149 25.7302V25.2928C39.1149 25.2915 39.1136 25.2915 39.1136 25.2902C39.1136 25.2902 39.1149 25.2888 39.1149 25.2875C39.1149 25.2862 39.1136 25.2848 39.1136 25.2835C39.1136 25.2835 39.1149 25.2822 39.1149 25.2808C39.1149 25.2782 39.1136 25.2768 39.1123 25.2742C39.1123 25.2715 39.1136 25.2688 39.1136 25.2662L39.1056 25.2155C39.1056 25.2155 39.1043 25.2142 39.1043 25.2128C39.1043 25.2128 39.1043 25.2115 39.1043 25.2102C39.1043 25.2102 39.1043 25.2088 39.1043 25.2075C39.1029 25.2022 39.1003 25.1968 39.0989 25.1915C39.0976 25.1862 39.0963 25.1822 39.0949 25.1768L39.0896 25.1675C39.0869 25.1608 39.0816 25.1555 39.0763 25.1502C39.0749 25.1488 39.0749 25.1475 39.0736 25.1462L39.0403 25.1048C39.0389 25.1035 39.0376 25.1035 39.0376 25.1022C39.0349 25.0995 39.0336 25.0968 39.0309 25.0942C39.0309 25.0942 39.0296 25.0942 39.0296 25.0928C39.0283 25.0928 39.0283 25.0915 39.0269 25.0915L39.0176 25.0822C39.0163 25.0808 39.0136 25.0795 39.0123 25.0782C39.0096 25.0768 39.0083 25.0742 39.0069 25.0728L38.9669 25.0475C38.9656 25.0462 38.9629 25.0462 38.9616 25.0448C38.9589 25.0422 38.9549 25.0395 38.9523 25.0382C38.9509 25.0382 38.9509 25.0382 38.9496 25.0368C38.9496 25.0368 38.9483 25.0368 38.9483 25.0355L38.9363 25.0315C38.9349 25.0302 38.9323 25.0302 38.9296 25.0288C38.9269 25.0288 38.9256 25.0262 38.9216 25.0262L38.8763 25.0128C38.8736 25.0128 38.8723 25.0128 38.8709 25.0128C38.8669 25.0115 38.8629 25.0088 38.8589 25.0088C38.8509 25.0075 38.8443 25.0062 38.8376 25.0062C38.8363 25.0062 38.8349 25.0062 38.8349 25.0062C38.8336 25.0062 38.8336 25.0062 38.8323 25.0062H38.5936C38.5923 25.0062 38.5923 25.0062 38.5909 25.0062C38.5896 25.0062 38.5869 25.0062 38.5856 25.0062C38.5789 25.0062 38.5723 25.0075 38.5643 25.0088C38.5643 25.0088 38.5629 25.0088 38.5616 25.0088C38.5589 25.0102 38.5563 25.0102 38.5523 25.0115L38.5043 25.0248C38.5029 25.0262 38.5029 25.0262 38.5016 25.0262C38.4963 25.0275 38.4909 25.0288 38.4856 25.0315L38.4736 25.0368C38.4709 25.0382 38.4696 25.0408 38.4669 25.0422C38.4643 25.0435 38.4616 25.0435 38.4603 25.0448L38.4269 25.0675C38.4243 25.0688 38.4216 25.0702 38.4189 25.0728C38.4176 25.0728 38.4176 25.0742 38.4163 25.0742C38.4149 25.0755 38.4149 25.0768 38.4123 25.0782C38.4123 25.0795 38.4109 25.0795 38.4096 25.0808C38.4083 25.0822 38.4056 25.0822 38.4056 25.0835L38.4043 25.0848L38.4029 25.0862C38.4016 25.0875 38.4003 25.0875 38.3989 25.0888L38.3936 25.0942C38.3923 25.0955 38.3909 25.0968 38.3896 25.0982C38.3883 25.0982 38.3883 25.0995 38.3883 25.1008C38.3856 25.1035 38.3829 25.1075 38.3803 25.1102C38.3789 25.1115 38.3776 25.1128 38.3763 25.1142L38.3536 25.1502C38.3536 25.1502 38.3536 25.1515 38.3523 25.1515C38.3509 25.1528 38.3509 25.1542 38.3509 25.1555C38.3496 25.1582 38.3483 25.1595 38.3469 25.1622C38.3456 25.1648 38.3416 25.1675 38.3403 25.1702L38.3389 25.1715C38.3389 25.1728 38.3389 25.1728 38.3389 25.1742C38.3389 25.1742 38.3389 25.1742 38.3376 25.1742C38.3363 25.1768 38.3363 25.1795 38.3349 25.1808L38.3323 25.1888C38.3309 25.1928 38.3296 25.1968 38.3283 25.1995L38.3203 25.2302C38.3149 25.2408 38.3123 25.2515 38.3109 25.2622C38.3109 25.2648 38.3109 25.2662 38.3109 25.2688C38.3096 25.2715 38.3096 25.2755 38.3096 25.2795V25.2822V25.2875V26.0008C38.3096 26.0022 38.3096 26.0022 38.3096 26.0035C38.3096 26.0048 38.3096 26.0075 38.3096 26.0088C38.3096 26.0102 38.3096 26.0115 38.3096 26.0128C38.3096 26.0142 38.3096 26.0155 38.3096 26.0168C38.3096 26.0195 38.3109 26.0222 38.3109 26.0248C38.3109 26.0275 38.3109 26.0302 38.3109 26.0328L38.3256 26.1182C38.3269 26.1235 38.3269 26.1275 38.3283 26.1315C38.3283 26.1328 38.3283 26.1328 38.3283 26.1342C38.3296 26.1355 38.3296 26.1368 38.3309 26.1382C38.3309 26.1395 38.3309 26.1408 38.3309 26.1422L38.3563 26.2155C38.3589 26.2248 38.3616 26.2328 38.3643 26.2395C38.3643 26.2408 38.3656 26.2408 38.3656 26.2408C38.3656 26.2422 38.3656 26.2435 38.3669 26.2448V26.2475C38.3683 26.2502 38.3709 26.2542 38.3709 26.2542C38.3736 26.2582 38.3763 26.2622 38.3789 26.2662C38.3829 26.2742 38.3883 26.2795 38.3949 26.2848L38.4456 26.3422C38.4456 26.3435 38.4469 26.3435 38.4483 26.3448C38.4483 26.3462 38.4496 26.3475 38.4496 26.3475C38.4509 26.3488 38.4523 26.3502 38.4536 26.3515L38.4563 26.3542C38.4576 26.3555 38.4603 26.3568 38.4616 26.3582C38.4629 26.3595 38.4629 26.3608 38.4656 26.3622L38.5349 26.4182C38.5363 26.4195 38.5376 26.4195 38.5376 26.4195C38.5443 26.4248 38.5523 26.4302 38.5563 26.4342C38.5589 26.4355 38.5629 26.4355 38.5656 26.4382C38.5669 26.4382 38.5683 26.4395 38.5696 26.4408L38.6389 26.4702C38.6389 26.4715 38.6403 26.4715 38.6403 26.4728L38.6469 26.4755C38.6509 26.4768 38.6589 26.4808 38.6629 26.4822C38.6643 26.4822 38.6656 26.4822 38.6669 26.4822C38.6683 26.4835 38.6696 26.4835 38.6723 26.4835L38.6736 26.4848L40.1469 26.8728H40.1483C40.1496 26.8728 40.1496 26.8742 40.1509 26.8742C40.1536 26.8755 40.1563 26.8742 40.1589 26.8755C40.1603 26.8755 40.1616 26.8768 40.1643 26.8768L40.2323 26.8888C40.2363 26.8902 40.2403 26.8902 40.2443 26.8902C40.2496 26.8915 40.2549 26.8928 40.2603 26.8928C40.2643 26.8928 40.2683 26.8942 40.2709 26.8942C40.2776 26.8942 40.2829 26.8942 40.2896 26.8928C40.2936 26.8915 40.2963 26.8902 40.2989 26.8902C40.3003 26.8902 40.3016 26.8902 40.3029 26.8888L40.3856 26.8688L40.3896 26.8675C40.3909 26.8675 40.3923 26.8675 40.3936 26.8662C40.3949 26.8662 40.3976 26.8648 40.3989 26.8648C40.4029 26.8635 40.4056 26.8622 40.4096 26.8608C40.4096 26.8608 40.4109 26.8608 40.4123 26.8608L40.4136 26.8595C40.4149 26.8595 40.4149 26.8595 40.4163 26.8595C40.4176 26.8582 40.4176 26.8582 40.4189 26.8568L40.4909 26.8222C40.4909 26.8222 40.4923 26.8208 40.4936 26.8208C40.4963 26.8195 40.4989 26.8168 40.5029 26.8142C40.5043 26.8128 40.5083 26.8128 40.5096 26.8115C40.5136 26.8075 40.5189 26.8048 40.5216 26.8035C40.5229 26.8022 40.5243 26.7995 40.5256 26.7982C40.5269 26.7955 40.5296 26.7955 40.5323 26.7928L40.5869 26.7382C40.5869 26.7368 40.5883 26.7368 40.5883 26.7355C40.5909 26.7328 40.5936 26.7302 40.5963 26.7275C40.5989 26.7248 40.6016 26.7222 40.6029 26.7208C40.6043 26.7182 40.6056 26.7168 40.6069 26.7142C40.6109 26.7088 40.6149 26.7022 40.6189 26.6955C40.6189 26.6942 40.6189 26.6942 40.6189 26.6928C40.6189 26.6928 40.6203 26.6928 40.6203 26.6915L40.6509 26.6222C40.6509 26.6195 40.6549 26.6142 40.6549 26.6142C40.6549 26.6142 40.6549 26.6128 40.6549 26.6115L40.6563 26.6102C40.6563 26.6088 40.6563 26.6088 40.6576 26.6075C40.6589 26.6022 40.6616 26.5955 40.6629 26.5915C40.6629 26.5888 40.6629 26.5862 40.6643 26.5848C40.6643 26.5822 40.6656 26.5795 40.6669 26.5782L40.6776 26.5088C40.6776 26.5088 40.6789 26.5088 40.6789 26.5075C40.6803 26.5048 40.6789 26.5008 40.6803 26.4968C40.6803 26.4955 40.6816 26.4955 40.6816 26.4928C40.6829 26.4902 40.6829 26.4848 40.6829 26.4808C40.6829 26.4795 40.6829 26.4782 40.6829 26.4782V26.4742V26.4728V14.9222C40.6829 14.9208 40.6829 14.9195 40.6829 14.9182C40.6829 14.9182 40.6829 14.9182 40.6829 14.9168Z" fill="white"/>
<path d="M40.6829 14.9168V14.9155C40.6829 14.9142 40.6829 14.9128 40.6829 14.9102C40.6829 14.9088 40.6829 14.9075 40.6829 14.9062L40.6603 14.6582V14.6542C40.6603 14.6515 40.6589 14.6502 40.6589 14.6488C40.6589 14.6475 40.6589 14.6462 40.6589 14.6462C40.6576 14.6422 40.6589 14.6408 40.6589 14.6368L40.6149 14.3822C40.6136 14.3795 40.6136 14.3755 40.6136 14.3728L40.6123 14.3715C40.6123 14.3688 40.6109 14.3648 40.6096 14.3608V14.3595L40.5296 14.1195C40.5296 14.1182 40.5283 14.1168 40.5269 14.1155C40.5269 14.1142 40.5269 14.1128 40.5256 14.1128C40.5256 14.1115 40.5256 14.1102 40.5256 14.1088L40.5243 14.1075C40.5243 14.1062 40.5243 14.1048 40.5229 14.1048L40.4229 13.8742C40.4216 13.8715 40.4203 13.8675 40.4189 13.8648C40.4189 13.8635 40.4176 13.8635 40.4163 13.8622C40.4163 13.8608 40.4163 13.8582 40.4149 13.8568C40.4149 13.8555 40.4136 13.8555 40.4123 13.8542C40.4123 13.8528 40.4123 13.8515 40.4109 13.8502L40.2736 13.6315C40.2709 13.6288 40.2696 13.6275 40.2669 13.6248C40.2669 13.6235 40.2669 13.6222 40.2656 13.6208L40.2629 13.6182C40.2616 13.6168 40.2616 13.6168 40.2616 13.6168C40.2603 13.6155 40.2603 13.6155 40.2603 13.6155L40.1016 13.4195C40.1003 13.4182 40.0989 13.4168 40.0976 13.4168C40.0976 13.4155 40.0963 13.4142 40.0963 13.4142C40.0949 13.4128 40.0949 13.4115 40.0949 13.4115L40.0923 13.4102C40.0923 13.4088 40.0909 13.4062 40.0896 13.4048C40.0896 13.4048 40.0883 13.4048 40.0883 13.4035H40.0869L39.9083 13.2328L39.9069 13.2302L39.9056 13.2288L39.9043 13.2275C39.9043 13.2275 39.9029 13.2275 39.9029 13.2262C39.9016 13.2262 39.9016 13.2248 39.9016 13.2248C39.8989 13.2235 39.8976 13.2222 39.8949 13.2208C39.8936 13.2195 39.8923 13.2168 39.8896 13.2142L39.6923 13.0675C39.6923 13.0662 39.6909 13.0662 39.6909 13.0662L39.6869 13.0635C39.6856 13.0622 39.6829 13.0622 39.6816 13.0608C39.6803 13.0595 39.6789 13.0595 39.6776 13.0582C39.6749 13.0568 39.6736 13.0528 39.6696 13.0515L39.4523 12.9262C39.4523 12.9262 39.4523 12.9248 39.4509 12.9248L39.4496 12.9235C39.4443 12.9208 39.4403 12.9195 39.4349 12.9168C39.4336 12.9155 39.4323 12.9142 39.4309 12.9142C39.4296 12.9128 39.4283 12.9128 39.4269 12.9128C39.4256 12.9128 39.4256 12.9115 39.4243 12.9102L39.1949 12.8168C39.1949 12.8168 39.1949 12.8168 39.1936 12.8168L39.1923 12.8155C39.1909 12.8155 39.1883 12.8155 39.1869 12.8142C39.1829 12.8128 39.1803 12.8115 39.1763 12.8115L39.1749 12.8102L38.9336 12.7395C38.9336 12.7395 38.9323 12.7395 38.9309 12.7382C38.9296 12.7382 38.9269 12.7368 38.9256 12.7368C38.9256 12.7368 38.9243 12.7368 38.9229 12.7355C38.9203 12.7355 38.9176 12.7355 38.9149 12.7355C38.9109 12.7342 38.9083 12.7315 38.9043 12.7315L38.6683 12.6982C38.6669 12.6982 38.6669 12.6968 38.6656 12.6968C38.6643 12.6968 38.6629 12.6968 38.6616 12.6968C38.6603 12.6968 38.6603 12.6968 38.6589 12.6955C38.6563 12.6955 38.6536 12.6955 38.6509 12.6955C38.6496 12.6955 38.6483 12.6942 38.6469 12.6942L2.16959 9.5035V1.68217C2.16959 1.68083 2.16959 1.6795 2.16959 1.67817V1.6755C2.16959 1.67283 2.16826 1.6715 2.16826 1.66883C2.16826 1.66617 2.16959 1.66483 2.16826 1.66217L2.16293 1.62083L2.14559 1.54883C2.14426 1.54483 2.14292 1.54083 2.14159 1.53683L2.12559 1.50217L2.08959 1.4395C2.08826 1.43683 2.08559 1.43417 2.08292 1.4315L2.05892 1.40217L2.01226 1.35817C2.00826 1.3555 2.00559 1.35283 2.00292 1.3515L1.97226 1.3315L1.91626 1.3035C1.91226 1.30083 1.90959 1.2995 1.90559 1.2995L1.88026 1.29017C1.87626 1.28883 1.87359 1.28883 1.87093 1.2875L1.77626 1.27417C1.77226 1.27283 1.76826 1.27283 1.76559 1.27417H1.73892C1.73492 1.27417 1.73093 1.2755 1.72826 1.2755L1.63493 1.2955C1.63093 1.29683 1.62826 1.29817 1.62426 1.2995L1.55759 1.33283L1.50559 1.37017C1.50293 1.37283 1.49893 1.3755 1.49626 1.3795L1.45226 1.42883C1.44959 1.4315 1.44826 1.43417 1.44559 1.43683L1.40959 1.49683C1.40826 1.4995 1.40559 1.5035 1.40426 1.5075L1.39093 1.54483L1.37093 1.61683C1.37093 1.6195 1.36959 1.6235 1.36959 1.62617L1.36559 1.65817C1.36559 1.65817 1.36559 1.6595 1.36559 1.66083C1.36559 1.66617 1.36426 1.67017 1.36426 1.6755V1.67817V10.1062C1.36426 10.1075 1.36426 10.1102 1.36426 10.1102C1.36426 10.1115 1.36426 10.1115 1.36426 10.1115C1.36426 10.1128 1.36426 10.1128 1.36426 10.1128C1.36426 10.1142 1.36426 10.1155 1.36426 10.1155C1.36426 10.1195 1.36426 10.1248 1.36559 10.1288C1.36559 10.1315 1.36559 10.1355 1.36693 10.1395C1.36826 10.1502 1.37226 10.1595 1.37759 10.1688L1.38426 10.1675C1.38426 10.1702 1.38559 10.1715 1.38692 10.1728L1.38159 10.1768C1.38426 10.1835 1.38959 10.1902 1.39359 10.1968C1.39759 10.2008 1.40026 10.2062 1.40426 10.2088C1.40959 10.2142 1.41493 10.2195 1.42159 10.2235C1.42826 10.2275 1.43493 10.2328 1.44026 10.2355C1.44159 10.2355 1.44959 10.2395 1.45093 10.2408C1.46026 10.2448 1.46959 10.2475 1.47893 10.2488C1.48293 10.2502 1.48693 10.2502 1.49093 10.2502C1.49226 10.2502 1.49226 10.2502 1.49359 10.2502L38.5709 13.4968L38.7656 13.5248L38.9496 13.5795L39.1189 13.6542L39.1203 13.6555L39.2816 13.7555L39.4323 13.8848L39.5629 14.0288L39.6803 14.1875L39.7643 14.3568L39.8243 14.5368L39.8629 14.7208L39.8776 14.9208V25.9128L39.8709 25.9435L39.8683 25.9475L39.8563 25.9555L39.8443 25.9608L39.8269 25.9582L39.1523 25.7822L39.1269 25.7688L39.1203 25.7582L39.1149 25.7302V25.2928C39.1149 25.2915 39.1136 25.2915 39.1136 25.2902C39.1136 25.2902 39.1149 25.2888 39.1149 25.2875C39.1149 25.2862 39.1136 25.2848 39.1136 25.2835C39.1136 25.2835 39.1149 25.2822 39.1149 25.2808C39.1149 25.2782 39.1136 25.2768 39.1123 25.2742C39.1123 25.2715 39.1136 25.2688 39.1136 25.2662L39.1056 25.2155C39.1056 25.2155 39.1043 25.2142 39.1043 25.2128C39.1043 25.2128 39.1043 25.2115 39.1043 25.2102C39.1043 25.2102 39.1043 25.2088 39.1043 25.2075C39.1029 25.2022 39.1003 25.1968 39.0989 25.1915C39.0976 25.1862 39.0963 25.1822 39.0949 25.1768L39.0896 25.1675C39.0869 25.1608 39.0816 25.1555 39.0763 25.1502C39.0749 25.1488 39.0749 25.1475 39.0736 25.1462L39.0403 25.1048C39.0389 25.1035 39.0376 25.1035 39.0376 25.1022C39.0349 25.0995 39.0336 25.0968 39.0309 25.0942C39.0309 25.0942 39.0296 25.0942 39.0296 25.0928C39.0283 25.0928 39.0283 25.0915 39.0269 25.0915L39.0176 25.0822C39.0163 25.0808 39.0136 25.0795 39.0123 25.0782C39.0096 25.0768 39.0083 25.0742 39.0069 25.0728L38.9669 25.0475C38.9656 25.0462 38.9629 25.0462 38.9616 25.0448C38.9589 25.0422 38.9549 25.0395 38.9523 25.0382C38.9509 25.0382 38.9509 25.0382 38.9496 25.0368C38.9496 25.0368 38.9483 25.0368 38.9483 25.0355L38.9363 25.0315C38.9349 25.0302 38.9323 25.0302 38.9296 25.0288C38.9269 25.0288 38.9256 25.0262 38.9216 25.0262L38.8763 25.0128C38.8736 25.0128 38.8723 25.0128 38.8709 25.0128C38.8669 25.0115 38.8629 25.0088 38.8589 25.0088C38.8509 25.0075 38.8443 25.0062 38.8376 25.0062C38.8363 25.0062 38.8349 25.0062 38.8349 25.0062C38.8336 25.0062 38.8336 25.0062 38.8323 25.0062H38.5936C38.5923 25.0062 38.5923 25.0062 38.5909 25.0062C38.5896 25.0062 38.5869 25.0062 38.5856 25.0062C38.5789 25.0062 38.5723 25.0075 38.5643 25.0088C38.5643 25.0088 38.5629 25.0088 38.5616 25.0088C38.5589 25.0102 38.5563 25.0102 38.5523 25.0115L38.5043 25.0248C38.5029 25.0262 38.5029 25.0262 38.5016 25.0262C38.4963 25.0275 38.4909 25.0288 38.4856 25.0315L38.4736 25.0368C38.4709 25.0382 38.4696 25.0408 38.4669 25.0422C38.4643 25.0435 38.4616 25.0435 38.4603 25.0448L38.4269 25.0675C38.4243 25.0688 38.4216 25.0702 38.4189 25.0728C38.4176 25.0728 38.4176 25.0742 38.4163 25.0742C38.4149 25.0755 38.4149 25.0768 38.4123 25.0782C38.4123 25.0795 38.4109 25.0795 38.4096 25.0808C38.4083 25.0822 38.4056 25.0822 38.4056 25.0835L38.4043 25.0848L38.4029 25.0862C38.4016 25.0875 38.4003 25.0875 38.3989 25.0888L38.3936 25.0942C38.3923 25.0955 38.3909 25.0968 38.3896 25.0982C38.3883 25.0982 38.3883 25.0995 38.3883 25.1008C38.3856 25.1035 38.3829 25.1075 38.3803 25.1102C38.3789 25.1115 38.3776 25.1128 38.3763 25.1142L38.3536 25.1502C38.3536 25.1502 38.3536 25.1515 38.3523 25.1515C38.3509 25.1528 38.3509 25.1542 38.3509 25.1555C38.3496 25.1582 38.3483 25.1595 38.3469 25.1622C38.3456 25.1648 38.3416 25.1675 38.3403 25.1702L38.3389 25.1715C38.3389 25.1728 38.3389 25.1728 38.3389 25.1742C38.3389 25.1742 38.3389 25.1742 38.3376 25.1742C38.3363 25.1768 38.3363 25.1795 38.3349 25.1808L38.3323 25.1888C38.3309 25.1928 38.3296 25.1968 38.3283 25.1995L38.3203 25.2302C38.3149 25.2408 38.3123 25.2515 38.3109 25.2622C38.3109 25.2648 38.3109 25.2662 38.3109 25.2688C38.3096 25.2715 38.3096 25.2755 38.3096 25.2795V25.2822V25.2875V26.0008C38.3096 26.0022 38.3096 26.0022 38.3096 26.0035C38.3096 26.0048 38.3096 26.0075 38.3096 26.0088C38.3096 26.0102 38.3096 26.0115 38.3096 26.0128C38.3096 26.0142 38.3096 26.0155 38.3096 26.0168C38.3096 26.0195 38.3109 26.0222 38.3109 26.0248C38.3109 26.0275 38.3109 26.0302 38.3109 26.0328L38.3256 26.1182C38.3269 26.1235 38.3269 26.1275 38.3283 26.1315C38.3283 26.1328 38.3283 26.1328 38.3283 26.1342C38.3296 26.1355 38.3296 26.1368 38.3309 26.1382C38.3309 26.1395 38.3309 26.1408 38.3309 26.1422L38.3563 26.2155C38.3589 26.2248 38.3616 26.2328 38.3643 26.2395C38.3643 26.2408 38.3656 26.2408 38.3656 26.2408C38.3656 26.2422 38.3656 26.2435 38.3669 26.2448V26.2475C38.3683 26.2502 38.3709 26.2542 38.3709 26.2542C38.3736 26.2582 38.3763 26.2622 38.3789 26.2662C38.3829 26.2742 38.3883 26.2795 38.3949 26.2848L38.4456 26.3422C38.4456 26.3435 38.4469 26.3435 38.4483 26.3448C38.4483 26.3462 38.4496 26.3475 38.4496 26.3475C38.4509 26.3488 38.4523 26.3502 38.4536 26.3515L38.4563 26.3542C38.4576 26.3555 38.4603 26.3568 38.4616 26.3582C38.4629 26.3595 38.4629 26.3608 38.4656 26.3622L38.5349 26.4182C38.5363 26.4195 38.5376 26.4195 38.5376 26.4195C38.5443 26.4248 38.5523 26.4302 38.5563 26.4342C38.5589 26.4355 38.5629 26.4355 38.5656 26.4382C38.5669 26.4382 38.5683 26.4395 38.5696 26.4408L38.6389 26.4702C38.6389 26.4715 38.6403 26.4715 38.6403 26.4728L38.6469 26.4755C38.6509 26.4768 38.6589 26.4808 38.6629 26.4822C38.6643 26.4822 38.6656 26.4822 38.6669 26.4822C38.6683 26.4835 38.6696 26.4835 38.6723 26.4835L38.6736 26.4848L40.1469 26.8728H40.1483C40.1496 26.8728 40.1496 26.8742 40.1509 26.8742C40.1536 26.8755 40.1563 26.8742 40.1589 26.8755C40.1603 26.8755 40.1616 26.8768 40.1643 26.8768L40.2323 26.8888C40.2363 26.8902 40.2403 26.8902 40.2443 26.8902C40.2496 26.8915 40.2549 26.8928 40.2603 26.8928C40.2643 26.8928 40.2683 26.8942 40.2709 26.8942C40.2776 26.8942 40.2829 26.8942 40.2896 26.8928C40.2936 26.8915 40.2963 26.8902 40.2989 26.8902C40.3003 26.8902 40.3016 26.8902 40.3029 26.8888L40.3856 26.8688L40.3896 26.8675C40.3909 26.8675 40.3923 26.8675 40.3936 26.8662C40.3949 26.8662 40.3976 26.8648 40.3989 26.8648C40.4029 26.8635 40.4056 26.8622 40.4096 26.8608C40.4096 26.8608 40.4109 26.8608 40.4123 26.8608L40.4136 26.8595C40.4149 26.8595 40.4149 26.8595 40.4163 26.8595C40.4176 26.8582 40.4176 26.8582 40.4189 26.8568L40.4909 26.8222C40.4909 26.8222 40.4923 26.8208 40.4936 26.8208C40.4963 26.8195 40.4989 26.8168 40.5029 26.8142C40.5043 26.8128 40.5083 26.8128 40.5096 26.8115C40.5136 26.8075 40.5189 26.8048 40.5216 26.8035C40.5229 26.8022 40.5243 26.7995 40.5256 26.7982C40.5269 26.7955 40.5296 26.7955 40.5323 26.7928L40.5869 26.7382C40.5869 26.7368 40.5883 26.7368 40.5883 26.7355C40.5909 26.7328 40.5936 26.7302 40.5963 26.7275C40.5989 26.7248 40.6016 26.7222 40.6029 26.7208C40.6043 26.7182 40.6056 26.7168 40.6069 26.7142C40.6109 26.7088 40.6149 26.7022 40.6189 26.6955C40.6189 26.6942 40.6189 26.6942 40.6189 26.6928C40.6189 26.6928 40.6203 26.6928 40.6203 26.6915L40.6509 26.6222C40.6509 26.6195 40.6549 26.6142 40.6549 26.6142C40.6549 26.6142 40.6549 26.6128 40.6549 26.6115L40.6563 26.6102C40.6563 26.6088 40.6563 26.6088 40.6576 26.6075C40.6589 26.6022 40.6616 26.5955 40.6629 26.5915C40.6629 26.5888 40.6629 26.5862 40.6643 26.5848C40.6643 26.5822 40.6656 26.5795 40.6669 26.5782L40.6776 26.5088C40.6776 26.5088 40.6789 26.5088 40.6789 26.5075C40.6803 26.5048 40.6789 26.5008 40.6803 26.4968C40.6803 26.4955 40.6816 26.4955 40.6816 26.4928C40.6829 26.4902 40.6829 26.4848 40.6829 26.4808C40.6829 26.4795 40.6829 26.4782 40.6829 26.4782V26.4742V26.4728V14.9222C40.6829 14.9208 40.6829 14.9195 40.6829 14.9182C40.6829 14.9182 40.6829 14.9182 40.6829 14.9168Z" stroke="white" stroke-width="1.2" stroke-miterlimit="10" stroke-linecap="round" stroke-linejoin="round"/>
</svg>
