<svg width="33" height="32" viewBox="0 0 33 32" fill="none" xmlns="http://www.w3.org/2000/svg">
<path d="M9.42356 17.3044C9.9969 17.3337 9.98756 17.3297 10.1769 16.7724C10.7236 15.1577 11.7476 13.8804 13.0529 12.8297C13.4502 12.5111 13.6409 12.2257 13.4116 11.7497C13.2276 11.3684 13.4036 11.1511 13.7209 10.9444C14.1462 10.6684 14.1342 10.6497 14.4262 11.0591C14.5116 11.1777 14.5956 11.2964 14.6809 11.4151C14.8569 11.6591 15.0689 11.6497 15.2542 11.4004C15.3302 11.2977 15.2516 11.2457 15.2089 11.1844C15.0422 10.9444 14.8756 10.7044 14.6996 10.4711C14.5009 10.2071 14.8009 10.1964 14.8942 10.0897C14.9876 9.9804 15.0982 9.91373 15.2129 10.0964C15.3582 10.3257 15.5409 10.5311 15.6782 10.7644C15.8236 11.0111 15.9409 10.8537 16.0769 10.7711C16.2209 10.6831 16.2942 10.6057 16.1516 10.4364C15.9702 10.2217 15.8276 9.97507 15.6556 9.75107C15.4649 9.5044 15.7396 9.48573 15.8329 9.38973C15.9222 9.29773 16.0316 9.19107 16.1556 9.38307C16.3129 9.6284 16.5022 9.8524 16.6582 10.0991C16.7822 10.2951 16.8862 10.1777 16.9822 10.0951C17.0742 10.0164 17.2916 9.98573 17.1289 9.7764C16.9702 9.56973 16.8369 9.34173 16.6689 9.14307C16.5076 8.95507 16.5369 8.85373 16.7356 8.7084C18.8862 7.1244 21.0289 5.52973 23.1729 3.93773C23.9436 3.36573 24.7169 2.79507 25.4822 2.21773C25.6356 2.10173 25.7702 2.0604 25.9636 2.1284C26.3756 2.27507 26.8036 2.3764 27.2169 2.51907C27.3876 2.57907 27.5049 2.54973 27.6449 2.45107C28.6582 1.7324 29.6796 1.02707 30.6889 0.304402C30.8702 0.173735 30.9556 0.195067 31.0769 0.3724C31.3876 0.829733 31.7129 1.27774 32.0436 1.7204C32.1569 1.8724 32.1436 1.94974 31.9862 2.06307C31.0249 2.76307 30.0769 3.48173 29.1142 4.17907C28.9196 4.32173 28.8276 4.48307 28.7982 4.7164C28.7436 5.16173 28.6516 5.60173 28.5982 6.04707C28.5742 6.24973 28.4436 6.3244 28.2996 6.41107C26.9369 7.22173 25.5782 8.0364 24.2129 8.84307C24.0382 8.94573 23.9369 9.07107 23.8809 9.26707C23.7636 9.6884 23.7209 10.1831 23.4636 10.4964C23.2049 10.8111 22.7249 10.9431 22.3396 11.1497C20.5649 12.0991 18.7902 13.0471 17.0182 14.0004C16.8556 14.0871 16.6982 14.1311 16.5129 14.1151C15.9929 14.0737 15.4716 14.0511 14.9516 14.0084C14.8169 13.9977 14.7102 14.0284 14.6036 14.1044C13.1902 15.1257 12.1969 16.4591 11.6249 18.1084C11.5609 18.2924 11.5996 18.3804 11.7809 18.4244C11.8409 18.4391 11.8982 18.4657 11.9569 18.4897C12.4662 18.7031 12.4676 18.7537 12.2009 19.2351C11.5462 20.4124 11.0329 21.6591 10.4929 22.8911C10.2089 23.5417 9.9249 24.1924 9.6569 24.8484C9.58223 25.0324 9.50756 25.0764 9.31556 25.0044C8.62356 24.7431 7.92756 24.4937 7.22623 24.2551C7.0129 24.1831 6.96756 24.0857 7.02623 23.8697C7.53156 22.0391 8.02756 20.2071 8.52623 18.3751C8.59423 18.1231 8.6809 17.8751 8.72623 17.6191C8.77423 17.3484 8.9089 17.2497 9.17423 17.3017C9.25423 17.3177 9.33956 17.3044 9.42356 17.3044Z" fill="white"/>
<path d="M0.207031 26.0422C1.14036 25.6555 2.0737 25.2702 3.0057 24.8822C3.31236 24.7542 3.71903 24.6968 3.89503 24.4662C4.08436 24.2195 3.94703 23.8008 3.9497 23.4582C3.95903 22.7062 3.9537 21.9542 3.95503 21.2022C3.95503 21.1808 3.9617 21.1608 3.96436 21.1382C4.05903 21.0848 4.09503 21.1742 4.13903 21.2195C4.80303 21.8982 5.4617 22.5835 6.12836 23.2595C6.24436 23.3755 6.27903 23.4942 6.26703 23.6515C6.2457 23.9528 6.25103 24.2568 6.22037 24.5582C6.19903 24.7662 6.25903 24.8742 6.46836 24.8995C7.1137 24.9742 7.4417 25.2982 7.35636 25.9875C7.32836 26.2075 7.3897 26.4395 7.41903 26.7582C7.7137 26.4488 7.96037 26.1928 8.20437 25.9355C8.6257 25.4902 8.6257 25.4902 9.16303 25.7782C9.6257 26.0275 9.64703 26.0395 9.88837 25.5862C10.1804 25.0382 10.5897 24.6222 11.0844 24.2542C12.223 23.4075 13.3337 22.5248 14.4577 21.6568C14.5377 21.5955 14.6217 21.5408 14.7524 21.4502C14.683 22.1048 14.6204 22.7022 14.5564 23.2982C14.5217 23.6315 14.4937 23.9635 14.4484 24.2942C14.419 24.5128 14.495 24.5435 14.6897 24.4875C16.2684 24.0235 17.8484 23.5622 19.4297 23.1075C20.6817 22.7475 21.935 22.3982 23.1884 22.0448C23.2364 22.0315 23.287 22.0275 23.411 22.0062C22.811 22.4235 22.2697 22.7902 21.739 23.1728C20.9604 23.7342 20.1804 24.2955 19.4844 24.9608C19.363 25.0768 19.143 25.1995 19.2217 25.3755C19.287 25.5208 19.5084 25.4022 19.655 25.3915C23.091 25.1675 26.5324 25.1102 29.9724 25.0115C30.4924 24.9968 31.015 25.0088 31.6124 25.0088C28.2084 25.6995 24.8697 26.3768 21.5324 27.0528C21.531 27.0795 21.5297 27.1048 21.5284 27.1315C24.7977 27.9128 28.0684 28.6955 31.339 29.4768C31.339 29.4915 31.3404 29.5075 31.3417 29.5235C31.2697 29.5302 31.1977 29.5462 31.127 29.5448C27.7484 29.4902 24.3697 29.4328 20.9897 29.3755C19.4057 29.3488 17.8204 29.3275 16.235 29.2862C15.9937 29.2808 15.9337 29.3822 15.9017 29.5822C15.7964 30.2195 15.683 30.8542 15.5737 31.4888C15.4324 31.5008 15.3697 31.4035 15.2924 31.3422C14.587 30.7862 13.8817 30.2315 13.187 29.6635C13.019 29.5275 12.911 29.5168 12.7324 29.6542C11.999 30.2222 11.2444 30.7648 10.511 31.3342C10.3217 31.4808 10.251 31.4422 10.1484 31.2515C9.91503 30.8208 9.65103 30.4062 9.41903 29.9742C9.32303 29.7942 9.2377 29.7742 9.05636 29.8595C7.89903 30.4102 6.73236 30.9435 5.57503 31.4955C5.3417 31.6075 5.2577 31.5942 5.2337 31.3142C5.20303 30.9608 5.11103 30.6142 5.07636 30.2622C5.0497 29.9822 4.95503 29.9795 4.7217 30.0782C3.5617 30.5715 2.39503 31.0488 1.2297 31.5302C1.18436 31.5488 1.13636 31.5608 1.0137 31.5995C1.50303 31.0275 1.94436 30.5208 2.37636 30.0048C3.0537 29.1982 3.73636 28.3942 4.36703 27.5475C4.59236 27.2435 4.58836 27.2435 4.23503 27.1542C2.9737 26.8328 1.71236 26.5102 0.452365 26.1822C0.369698 26.1608 0.257698 26.1768 0.207031 26.0422Z" fill="white"/>
</svg>
