<svg width="37" height="23" viewBox="0 0 37 23" fill="none" xmlns="http://www.w3.org/2000/svg">
<path d="M0.0615234 14.1944C0.261523 13.8611 0.558857 13.7624 0.938857 13.7624C12.6442 13.7678 24.3495 13.7678 36.0549 13.7678C36.7602 13.7678 36.9509 13.9584 36.9509 14.6664C36.9509 16.9464 36.9509 19.2278 36.9509 21.5091C36.9509 22.1864 36.7535 22.3824 36.0669 22.3824C24.3615 22.3838 12.6562 22.3824 0.950857 22.3878C0.578857 22.3878 0.269523 22.3038 0.0615234 21.9758L0.0615234 14.1944ZM15.4269 15.0144C15.4269 15.1931 15.4269 15.3358 15.4269 15.4784C15.4255 16.1384 15.4335 16.7984 15.4175 17.4584C15.4082 17.8184 15.1562 18.0611 14.8335 18.0704C14.5335 18.0811 14.2549 17.8638 14.2229 17.5264C14.1842 17.1344 14.1989 16.7358 14.1962 16.3398C14.1922 15.9011 14.1949 15.4624 14.1949 15.0264H11.7615C11.7509 15.0798 11.7429 15.1038 11.7415 15.1278C11.7402 15.4518 11.7429 15.7758 11.7375 16.0998C11.7322 16.5571 11.4962 16.8424 11.1295 16.8438C10.7655 16.8451 10.5202 16.5571 10.5122 16.1038C10.5069 15.7464 10.5109 15.3891 10.5109 15.0184H8.05619C8.05619 15.6398 8.05886 16.2384 8.05619 16.8371C8.05486 17.0771 8.06686 17.3198 8.03219 17.5558C7.98686 17.8624 7.71352 18.0784 7.42952 18.0718C7.12552 18.0664 6.86819 17.8251 6.83752 17.5011C6.82152 17.3344 6.82952 17.1651 6.82952 16.9971C6.82819 16.3411 6.82952 15.6838 6.82952 15.0224H4.37086C4.37086 15.3598 4.37486 15.6718 4.36819 15.9824C4.36552 16.1251 4.35752 16.2731 4.31886 16.4078C4.22952 16.7158 3.99619 16.8611 3.69086 16.8291C3.38819 16.7971 3.17086 16.6158 3.15752 16.2931C3.13886 15.8678 3.15219 15.4411 3.15219 15.0144H1.30819V21.1278H35.7042V15.0184H33.8695C33.8695 15.4224 33.8695 15.8038 33.8695 16.1851C33.8682 16.4624 33.7562 16.6758 33.4949 16.7864C33.0735 16.9664 32.6722 16.6784 32.6469 16.1624C32.6282 15.7838 32.6442 15.4038 32.6442 15.0251H30.1829C30.1829 15.8211 30.1869 16.5891 30.1815 17.3571C30.1789 17.7878 29.9389 18.0638 29.5829 18.0718C29.2295 18.0798 28.9682 17.7984 28.9589 17.3784C28.9482 16.8971 28.9562 16.4171 28.9562 15.9371C28.9562 15.6304 28.9562 15.3238 28.9562 15.0144H26.5562C26.5322 15.0424 26.5189 15.0504 26.5175 15.0598C26.5122 15.4198 26.5109 15.7798 26.5002 16.1384C26.4855 16.5651 26.2362 16.8438 25.8829 16.8438C25.5255 16.8424 25.2829 16.5664 25.2762 16.1371C25.2695 15.7691 25.2749 15.3998 25.2749 15.0211H22.8149C22.8149 15.6558 22.8175 16.2678 22.8135 16.8784C22.8122 17.1051 22.8149 17.3358 22.7829 17.5584C22.7335 17.8931 22.5029 18.0571 22.1802 18.0664C21.8709 18.0771 21.6162 17.8304 21.5989 17.4958C21.5775 17.0531 21.5882 16.6078 21.5855 16.1638C21.5842 15.7838 21.5855 15.4038 21.5855 15.0144H19.1229C19.1229 15.3651 19.1375 15.6971 19.1175 16.0291C19.1069 16.2144 19.0962 16.4531 18.9829 16.5664C18.8442 16.7064 18.6002 16.8091 18.4002 16.8078C18.1295 16.8078 17.9322 16.6038 17.9189 16.3158C17.8989 15.8891 17.9135 15.4611 17.9135 15.0144H15.4269Z" fill="white"/>
<path d="M0.0615234 0.649125C0.122857 0.578458 0.169523 0.471792 0.246857 0.442459C0.437523 0.370459 0.66419 0.257126 0.834857 0.305126C1.00552 0.353126 1.13886 0.567792 1.26019 0.731792C1.30819 0.795792 1.28819 0.917126 1.28819 1.01313C1.28819 4.39446 1.28952 7.77579 1.28686 11.1571C1.28686 11.7105 0.933523 12.0398 0.49219 11.8771C0.32819 11.8158 0.20419 11.6478 0.0615234 11.5291V0.649125Z" fill="white"/>
<path d="M30.4912 5.75204C30.4912 4.90671 30.4912 4.08138 30.4912 3.25604C30.4912 3.06404 30.4872 2.87071 30.5032 2.68004C30.5259 2.40671 30.6552 2.14804 30.9312 2.13204C31.1325 2.12138 31.4152 2.22938 31.5405 2.38271C32.2339 3.22538 32.8899 4.10004 33.5579 4.96271C33.8005 5.27604 34.0472 5.58671 34.2845 5.90404C34.5619 6.27604 34.5659 6.51338 34.2832 6.88138C33.3912 8.04271 32.4925 9.19871 31.5979 10.3574C31.4165 10.5934 31.2005 10.7574 30.8912 10.6547C30.5805 10.552 30.4965 10.2867 30.4939 9.99471C30.4885 9.14271 30.4912 8.28938 30.4912 7.43738C30.4912 7.30804 30.4912 7.17871 30.4912 7.02671H6.54588C6.53788 7.15071 6.52321 7.27738 6.52321 7.40271C6.52055 8.20671 6.52321 9.01071 6.52054 9.81604C6.51921 9.94671 6.54054 10.0987 6.48321 10.2054C6.39254 10.372 6.26721 10.596 6.11521 10.636C5.94455 10.6814 5.66988 10.6054 5.54321 10.48C5.24721 10.1867 5.01121 9.83204 4.75388 9.50004C4.08455 8.63738 3.41521 7.77471 2.74855 6.90938C2.44188 6.50938 2.44188 6.27738 2.75254 5.87471C3.63788 4.72271 4.52988 3.57604 5.41655 2.42671C5.58721 2.20538 5.78188 2.02671 6.08455 2.11738C6.40988 2.21471 6.51655 2.47871 6.51788 2.78938C6.52321 3.64271 6.52055 4.49471 6.52188 5.34671C6.52188 5.47604 6.52188 5.60404 6.52188 5.75204H30.4912ZM5.36055 8.36538V4.42271C4.83655 5.10004 4.36988 5.69871 3.91121 6.30404C3.88188 6.34404 3.88855 6.45071 3.92055 6.49338C4.37921 7.09738 4.84455 7.69604 5.36055 8.36538ZM31.6645 4.43871V8.34804C32.1605 7.70804 32.6085 7.13338 33.0472 6.55338C33.0952 6.49071 33.1339 6.35338 33.1005 6.30804C32.6445 5.70004 32.1765 5.10138 31.6645 4.43871Z" fill="white"/>
<path d="M36.9509 6.10895C36.9509 7.74095 36.9509 9.37428 36.9509 11.0063C36.9509 11.1263 36.9562 11.2476 36.9402 11.3663C36.8935 11.6996 36.6469 11.9169 36.3322 11.9143C36.0149 11.9116 35.7735 11.6916 35.7322 11.3569C35.7189 11.2503 35.7242 11.1409 35.7242 11.0329C35.7242 7.73162 35.7242 4.43028 35.7242 1.12895C35.7242 1.01028 35.7175 0.887615 35.7402 0.770282C35.7975 0.462282 35.9909 0.284949 36.3055 0.260949C36.6069 0.236949 36.8669 0.438283 36.9282 0.74495C36.9549 0.87295 36.9495 1.00762 36.9495 1.13962C36.9509 2.79562 36.9509 4.45295 36.9509 6.10895Z" fill="white"/>
</svg>
