<svg width="43" height="24" viewBox="0 0 43 24" fill="none" xmlns="http://www.w3.org/2000/svg">
<path d="M1.47377 1.08633L1.5351 1.01033V0.994333L1.64043 0.944998H1.6431L1.70576 0.930332L1.76576 0.924999L1.9431 0.978331L2.0511 1.089L2.0551 1.117L2.0671 1.15566L2.26176 1.79167L2.3151 2.02233L2.34443 2.19033V2.25033L2.3591 2.45433V6.09433L2.37376 6.329L2.4111 6.56766L2.46843 6.76633L2.47776 6.777V6.79567L2.64176 7.15566L2.78443 7.373L3.00443 7.63166L3.33243 7.917L3.53376 8.05166L3.76443 8.17033L3.9951 8.269L4.25376 8.34766L4.49643 8.409L4.76843 8.43967L33.4098 11.121L33.4124 11.1223L33.9324 11.189L34.4484 11.277L35.1031 11.4317L36.0231 11.7357L36.6151 11.9837L37.1151 12.233L37.3044 12.3397H37.3178L37.3404 12.361L37.7338 12.5983H37.7484L37.7684 12.6183L37.8084 12.637V12.649L38.1844 12.9143L38.5764 13.221L38.9471 13.5343L39.3058 13.8943L39.5884 14.2077H39.6058L39.6298 14.2543L39.9311 14.637L40.2111 15.0237L40.4684 15.4477L40.6844 15.8663L40.8658 16.2583L40.8804 16.2743L40.8818 16.2997L41.0324 16.6957L41.0458 16.7103L41.0471 16.7437L41.1738 17.1823L41.2578 17.545H41.2778L41.2791 17.6357L41.3471 18.0663L41.3858 18.401L41.4204 18.9583L41.4311 19.6263L41.3951 21.1957L41.3524 21.445L41.3444 21.461L41.2751 21.7023L41.1644 21.957L41.0551 22.145V22.1783L41.0298 22.1903L41.0178 22.217H41.0058L40.8924 22.3783L40.8684 22.425L40.8511 22.4263L40.6844 22.609L40.4698 22.8023L40.2578 22.965L40.2418 22.9663L40.1191 23.017L40.0311 23.029L40.0058 23.0383L39.9858 23.0303L39.8804 23.0157L39.7458 22.961L39.6618 22.8957L39.6084 22.8303L39.5698 22.7543L39.5471 22.641L39.5484 22.5943L39.5578 22.5023V22.4263L39.5978 22.425L39.6378 22.3597L39.6538 22.3503L39.6804 22.3237V22.309L39.7298 22.2797L39.9018 22.145L40.0551 21.997L40.1844 21.8343L40.3018 21.6437L40.3831 21.477L40.4498 21.2677L40.4818 21.0837L40.4951 20.8783L40.4778 18.5263L40.4151 17.9917L40.3231 17.5277L40.1951 17.0703L40.1231 16.8583L39.9631 16.4517L39.7698 16.0543L39.5538 15.6717L39.3591 15.369L39.1444 15.0703L38.9151 14.781L38.6698 14.505L38.4098 14.2397L38.1364 13.9863L37.8498 13.745L37.5511 13.5183L37.2391 13.305L36.9151 13.1037L36.5804 12.917L36.2338 12.745L35.8778 12.5863L35.5111 12.445L35.3244 12.3783L34.9431 12.2583L34.7404 12.2023L34.2711 12.0943L33.7818 12.0103L33.2844 11.9503L4.64976 9.269L4.3191 9.21833L3.93643 9.13166L3.62043 9.029L3.39643 8.937L3.1151 8.79566L2.91376 8.67433L2.66443 8.49566L2.43243 8.29566L2.26976 8.13166L2.11643 7.95566L1.96843 7.761L1.81243 7.50633L1.68043 7.23433L1.56976 6.95833L1.56843 6.94367L1.50043 6.66366L1.4551 6.381L1.44043 6.09167L1.44443 5.71966L1.4711 5.68366L1.44176 5.62633L1.44043 5.53433L1.44443 5.51966L1.44976 5.42766L1.44176 5.409L1.44043 5.31566L1.44843 5.29167V5.20767L1.44176 5.19033L1.44043 5.093L1.4551 5.053V5.001L1.44043 4.95966V4.92766L1.44176 4.86366L1.4551 4.83566V4.78366L1.44043 4.741V4.71033L1.4551 4.61833L1.44976 4.55833L1.44176 4.53966L1.44043 4.43967L1.46176 4.38766L1.45376 4.34766L1.44176 4.321L1.44043 4.22233L1.46976 4.157L1.44176 4.10366L1.44043 4.005L1.4631 3.95033L1.46176 3.93033L1.44176 3.88633L1.44043 3.78633L1.4631 3.733L1.46176 3.71433L1.44176 3.669L1.44043 3.569L1.4711 3.50367L1.46043 3.485L1.44443 3.46633L1.44043 3.353L1.44976 3.32633V3.309L1.46976 3.28633L1.46176 3.269L1.44443 3.25166L1.44043 3.13566L1.4711 3.06766L1.45376 3.03833L1.44176 3.01033L1.44043 2.917L1.44976 2.89166V2.877L1.4711 2.85167L1.46176 2.83433L1.44443 2.817L1.44043 2.69967L1.4711 2.633L1.46043 2.61567L1.44443 2.597L1.44043 2.48233L1.44976 2.45566V2.43967L1.46976 2.417L1.46176 2.39966L1.44443 2.38233L1.44043 2.32367L1.44176 1.149L1.45376 1.133L1.47377 1.08633ZM1.47377 1.08633L1.56177 1.129L1.5151 1.113L1.47377 1.08633Z" stroke="white" stroke-width="1.2" stroke-miterlimit="10" stroke-linecap="round" stroke-linejoin="round"/>
</svg>
