<svg width="33" height="30" viewBox="0 0 33 30" fill="none" xmlns="http://www.w3.org/2000/svg">
<path d="M16.3469 1.31657L8.54555 8.27923H2.45622C1.53622 8.27923 0.789551 9.0259 0.789551 9.9459V19.9459C0.789551 20.8672 1.53622 21.6126 2.45622 21.6126H8.34955L16.3429 28.7992C17.4149 29.7632 19.1229 29.0019 19.1229 27.5606V2.56056C19.1229 1.12056 17.4202 0.357899 16.3469 1.31657ZM10.2336 11.2419L15.7895 6.2819V23.8206L10.5802 19.1366C10.2962 18.6259 9.74955 18.2792 9.12288 18.2792H4.12288V11.6126H8.70822C9.21088 11.7446 9.77888 11.6472 10.2336 11.2419Z" fill="white"/>
<path d="M24.9381 20.1747C24.4141 20.624 23.6248 20.5654 23.1755 20.0414C22.7248 19.5174 22.7848 18.728 23.3088 18.2787C23.3648 18.2307 23.4208 18.1774 23.4755 18.1214C23.7048 17.884 23.9101 17.5814 24.0781 17.228C24.3755 16.6027 24.5395 15.8534 24.5395 15.06C24.5395 13.8027 24.1235 12.6707 23.4755 11.9987C23.4208 11.9427 23.3648 11.8894 23.3088 11.8414C22.7848 11.392 22.7248 10.6027 23.1755 10.0787C23.6248 9.55468 24.4141 9.49602 24.9381 9.94535C25.0541 10.0454 25.1661 10.1507 25.2741 10.264C26.3928 11.4227 27.0395 13.18 27.0395 15.06C27.0395 16.22 26.7941 17.3374 26.3355 18.3027C26.0541 18.8934 25.6968 19.42 25.2741 19.8574C25.1661 19.9694 25.0541 20.0747 24.9381 20.1747Z" fill="white"/>
<path d="M26.4756 25.272C25.8982 25.6506 25.1236 25.4893 24.7449 24.912C24.3662 24.3346 24.5276 23.56 25.1049 23.1813C25.3769 23.0026 25.6396 22.812 25.8929 22.608C26.1462 22.404 26.3889 22.188 26.6196 21.9613C26.8516 21.7346 27.0716 21.4973 27.2782 21.2493C27.4862 21.0026 27.6809 20.7453 27.8636 20.48C28.0449 20.2133 28.2129 19.94 28.3662 19.6573C28.5209 19.376 28.6609 19.088 28.7849 18.792C28.9102 18.4973 29.0196 18.1973 29.1142 17.892C29.2089 17.5866 29.2876 17.2773 29.3502 16.964C29.4129 16.652 29.4609 16.336 29.4929 16.0173C29.5236 15.7013 29.5396 15.3813 29.5396 15.06C29.5396 14.7386 29.5236 14.42 29.4929 14.1026C29.4609 13.784 29.4129 13.468 29.3502 13.156C29.2876 12.8426 29.2089 12.5333 29.1142 12.228C29.0196 11.9226 28.9102 11.6226 28.7849 11.328C28.6609 11.0333 28.5209 10.744 28.3662 10.4626C28.2129 10.1813 28.0449 9.90663 27.8636 9.64129C27.6809 9.37463 27.4862 9.11729 27.2782 8.87063C27.0716 8.62263 26.8516 8.38529 26.6196 8.15863C26.3889 7.93196 26.1462 7.71596 25.8929 7.51196C25.6396 7.30796 25.3769 7.11729 25.1049 6.93863C24.5276 6.55996 24.3662 5.78529 24.7449 5.20796C25.1236 4.63063 25.8982 4.46929 26.4756 4.84796C26.8156 5.07063 27.1436 5.31063 27.4609 5.56529C27.7769 5.81996 28.0796 6.08929 28.3689 6.37196C28.6596 6.65596 28.9342 6.95329 29.1942 7.26396C29.4542 7.57463 29.6996 7.89729 29.9276 8.23063C30.1556 8.56396 30.3662 8.90929 30.5609 9.26396C30.7542 9.61729 30.9302 9.98129 31.0876 10.3533C31.2449 10.7253 31.3836 11.104 31.5022 11.4906C31.6209 11.8746 31.7209 12.2653 31.8009 12.6613C31.8809 13.0546 31.9409 13.4533 31.9809 13.856C32.0196 14.2546 32.0396 14.656 32.0396 15.06C32.0396 15.464 32.0196 15.8653 31.9809 16.264C31.9409 16.6666 31.8809 17.0653 31.8009 17.4586C31.7209 17.8546 31.6209 18.2453 31.5022 18.6293C31.3836 19.016 31.2449 19.3946 31.0876 19.7666C30.9302 20.1386 30.7542 20.5026 30.5609 20.8573C30.3662 21.2106 30.1556 21.556 29.9276 21.8893C29.6996 22.224 29.4542 22.5466 29.1942 22.856C28.9342 23.1666 28.6596 23.464 28.3689 23.748C28.0796 24.0306 27.7769 24.3013 27.4609 24.5546C27.1436 24.8093 26.8156 25.0493 26.4756 25.272Z" fill="white"/>
<path d="M1.39714 4.67992C0.686469 4.09458 0.585135 3.04392 1.17047 2.33325C1.7558 1.62392 2.80514 1.52125 3.5158 2.10658L31.8491 25.4399C32.5598 26.0252 32.6611 27.0759 32.0771 27.7866C31.4918 28.4972 30.4411 28.5986 29.7305 28.0132L1.39714 4.67992Z" fill="white"/>
</svg>
